<?xml version="1.0" standalone="no"?>
<!DOCTYPE svg PUBLIC "-//W3C//DTD SVG 20010904//EN"
 "http://www.w3.org/TR/2001/REC-SVG-20010904/DTD/svg10.dtd">
<svg version="1.0" xmlns="http://www.w3.org/2000/svg"
 width="11.000000pt" height="11.000000pt" viewBox="0 0 11.000000 11.000000"
 preserveAspectRatio="xMidYMid meet">

<g transform="translate(0.000000,11.000000) scale(0.100000,-0.100000)"
fill="#000000" stroke="none">
<path d="M10 91 c0 -5 7 -14 15 -21 14 -12 14 -15 -1 -31 -22 -24 -10 -37 14
-16 17 15 19 15 35 0 9 -9 20 -14 24 -10 4 4 -1 15 -10 24 -15 16 -15 18 0 35
21 24 8 36 -16 14 -16 -15 -19 -15 -31 -1 -14 17 -30 20 -30 6z"/>
</g>
</svg>
